<svg xmlns="http://www.w3.org/2000/svg" width="20.272" height="20.267" viewBox="0 0 20.272 20.267">
  <g id="Group_13346" data-name="Group 13346" transform="translate(-55 -408)">
    <g id="category" transform="translate(55 408)">
      <path id="Path_163217" data-name="Path 163217" d="M17.771-495.855a2.329,2.329,0,0,0-1.748,1.782c-.063.342-.063,5.114,0,5.456a2.3,2.3,0,0,0,1.812,1.79c.19.03,1.309.042,3.556.034,3.235-.013,3.281-.013,3.4-.1a1.152,1.152,0,0,0,.2-.2c.089-.114.089-.16.1-3.4.008-2.247,0-3.366-.034-3.556a2.3,2.3,0,0,0-1.79-1.812C22.948-495.918,18.075-495.914,17.771-495.855ZM23.13-494.5a1.008,1.008,0,0,1,.566.566c.038.131.051.883.051,2.99v2.812H20.934c-2.107,0-2.859-.013-2.99-.051a1.008,1.008,0,0,1-.566-.566c-.072-.249-.072-4.937,0-5.186a1.036,1.036,0,0,1,.541-.562C18.138-494.567,22.9-494.571,23.13-494.5Z" transform="translate(-15.975 495.901)" fill="#fff"/>
      <path id="Path_163218" data-name="Path 163218" d="M281.928-495.855a2.323,2.323,0,0,0-1.753,1.807c-.03.19-.042,1.3-.034,3.551l.013,3.277.122.156c.22.291.055.279,3.649.279,2.133,0,3.332-.017,3.5-.046a2.32,2.32,0,0,0,1.786-1.786c.03-.16.046-1.144.046-2.728s-.017-2.567-.046-2.728a2.32,2.32,0,0,0-1.786-1.786C287.105-495.918,282.232-495.914,281.928-495.855Zm5.359,1.351a1.008,1.008,0,0,1,.566.566,24.94,24.94,0,0,1,.051,2.618c0,2.369,0,2.449-.089,2.635a.712.712,0,0,1-.439.448l-.211.1h-5.68v-2.812c0-2.107.013-2.859.051-2.99a1.036,1.036,0,0,1,.54-.562C282.3-494.567,287.055-494.571,287.287-494.5Z" transform="translate(-268.984 495.901)" fill="#fff"/>
      <path id="Path_163219" data-name="Path 163219" d="M17.771-231.584a2.329,2.329,0,0,0-1.748,1.782c-.063.342-.063,5.114,0,5.456a2.32,2.32,0,0,0,1.786,1.786c.342.063,5.114.063,5.456,0a2.32,2.32,0,0,0,1.786-1.786c.03-.165.046-1.364.046-3.5,0-3.594.013-3.429-.279-3.649l-.156-.122-3.34,0C19.346-231.622,17.9-231.61,17.771-231.584Zm5.975,4.138c0,2.766,0,2.846-.089,3.032a.712.712,0,0,1-.439.448l-.211.1H20.562a24.949,24.949,0,0,1-2.618-.051,1.008,1.008,0,0,1-.566-.566c-.072-.249-.072-4.936,0-5.186a1.036,1.036,0,0,1,.541-.562c.1-.03,1.035-.046,2.99-.051l2.838,0Z" transform="translate(-15.975 242.779)" fill="#fff"/>
      <path id="Path_163220" data-name="Path 163220" d="M280.377-231.974a.7.7,0,0,0-.355.376c-.063.165-.063,6.507,0,6.854a2.32,2.32,0,0,0,1.786,1.786c.342.063,5.114.063,5.456,0a2.32,2.32,0,0,0,1.786-1.786c.063-.342.063-5.114,0-5.456a2.32,2.32,0,0,0-1.786-1.786C286.864-232.059,280.542-232.046,280.377-231.974Zm6.752,1.343a1.007,1.007,0,0,1,.566.566,24.94,24.94,0,0,1,.051,2.618c0,2.369,0,2.449-.089,2.635a.712.712,0,0,1-.439.448l-.211.1h-2.445a24.94,24.94,0,0,1-2.618-.051,1.007,1.007,0,0,1-.566-.566c-.038-.131-.051-.883-.051-2.99v-2.812h2.812C286.247-230.682,287-230.669,287.13-230.631Z" transform="translate(-268.827 243.178)" fill="#fff"/>
    </g>
  </g>
</svg>
