<svg xmlns="http://www.w3.org/2000/svg" width="19.643" height="19.92" viewBox="0 0 19.643 19.92">
  <g id="Group_13343" data-name="Group 13343" transform="translate(-55.523 -468.586)">
    <g id="content-marketing" transform="translate(55.523 468.586)">
      <path id="Path_163221" data-name="Path 163221" d="M4.625-511.659c-.031.008-.188.035-.346.058a4.529,4.529,0,0,0-2.442,1.3A4.693,4.693,0,0,0,.57-507.939c-.069.316-.073.619-.073,6.214,0,6.381-.012,6.062.215,6.767a4.6,4.6,0,0,0,1.125,1.847,4.515,4.515,0,0,0,1.82,1.142c.683.226.534.218,4.926.218h4.051l.157-.105a.7.7,0,0,0,.338-.654.7.7,0,0,0-.338-.655l-.157-.105L8.6-493.29c-4.366-.023-4.1-.012-4.665-.23a3.267,3.267,0,0,1-1.693-1.71c-.227-.608-.211-.164-.211-6.475s-.015-5.867.211-6.475a3.192,3.192,0,0,1,1.8-1.749c.553-.2.476-.195,6.435-.183,6.07.012,5.606,0,6.209.226a3.226,3.226,0,0,1,1.01.69,3.332,3.332,0,0,1,.672,1.017c.223.6.207.3.23,4.761.019,4.021.019,4.114.1,4.243a1.118,1.118,0,0,0,.223.253c.138.113.169.121.449.121s.311-.008.449-.121a1.025,1.025,0,0,0,.234-.292l.088-.171-.015-4.149a39.431,39.431,0,0,0-.077-4.414,4.7,4.7,0,0,0-3.521-3.623c-.323-.082-.361-.082-6.086-.09C7.274-511.667,4.656-511.667,4.625-511.659Z" transform="translate(-0.497 511.666)" fill="#fff"/>
      <path id="Path_163222" data-name="Path 163222" d="M100.582-412.818a.953.953,0,0,0-.582.842.933.933,0,0,0,.9.9.955.955,0,0,0,.632-.271A.9.9,0,0,0,100.582-412.818Z" transform="translate(-96.155 416.753)" fill="#fff"/>
      <path id="Path_163223" data-name="Path 163223" d="M189.672-405.689a.81.81,0,0,0-.444.473.747.747,0,0,0,.318.827l.137.087h7.082l.137-.087a.951.951,0,0,0,.235-.231.548.548,0,0,0,.1-.387.548.548,0,0,0-.1-.387.951.951,0,0,0-.235-.231l-.137-.087-3.487-.007C191.142-405.722,189.744-405.711,189.672-405.689Z" transform="translate(-181.629 409.871)" fill="#fff"/>
      <path id="Path_163224" data-name="Path 163224" d="M100.72-325.689a.85.85,0,0,0-.49.473.716.716,0,0,0,.351.827l.151.087H112.09l.151-.087a1.009,1.009,0,0,0,.259-.231.511.511,0,0,0,.108-.387.511.511,0,0,0-.108-.387,1.006,1.006,0,0,0-.259-.231l-.151-.087-5.619-.007C103-325.722,100.8-325.711,100.72-325.689Z" transform="translate(-96.6 333.007)" fill="#fff"/>
      <path id="Path_163225" data-name="Path 163225" d="M100.672-245.689a.821.821,0,0,0-.444.473.747.747,0,0,0,.318.827l.137.087h3.071l.137-.087a.95.95,0,0,0,.235-.231.548.548,0,0,0,.1-.387.548.548,0,0,0-.1-.387.95.95,0,0,0-.235-.231l-.137-.087-1.481-.007C101.4-245.722,100.74-245.711,100.672-245.689Z" transform="translate(-96.311 256.142)" fill="#fff"/>
      <path id="Path_163226" data-name="Path 163226" d="M266.477-245.637a.783.783,0,0,0-.477.665c0,.173.473,2.457.578,2.782a5.128,5.128,0,0,0,1.015,1.807c.343.4,2.941,2.985,3.14,3.115a2.825,2.825,0,0,0,.795.376,2.88,2.88,0,0,0,1.445,0,2.637,2.637,0,0,0,1.81-1.81,2.881,2.881,0,0,0,0-1.445c-.206-.658-.275-.748-1.861-2.341a13.709,13.709,0,0,0-2.208-2.027,6.687,6.687,0,0,0-2.764-.929C266.734-245.684,266.676-245.691,266.477-245.637ZM268.3-243.9a5.053,5.053,0,0,1,1.25.379c.509.26.683.408,2.186,1.908,1.709,1.7,1.687,1.673,1.687,2.19a1.093,1.093,0,0,1-.079.477,1.335,1.335,0,0,1-.585.6.887.887,0,0,1-.509.1c-.517,0-.488.022-2.19-1.687-1.5-1.5-1.648-1.677-1.908-2.186a5.053,5.053,0,0,1-.379-1.25c-.126-.611-.13-.64-.058-.64C267.745-244.015,268.009-243.964,268.3-243.9Z" transform="translate(-255.249 256.721)" fill="#fff"/>
    </g>
  </g>
</svg>
