<svg xmlns="http://www.w3.org/2000/svg" xmlns:xlink="http://www.w3.org/1999/xlink" width="26.122" height="26.122" viewBox="0 0 26.122 26.122">
  <defs>
    <clipPath id="clip-path">
      <rect id="Rectangle_3507" data-name="Rectangle 3507" width="26.122" height="26.122" transform="translate(-1 -1)" fill="#fff" stroke="#fff" stroke-width="0.5"/>
    </clipPath>
  </defs>
  <g id="Group_13349" data-name="Group 13349" transform="translate(-55 -284)">
    <g id="Group_13361" data-name="Group 13361" transform="translate(56 285)">
      <g id="Group_12886" data-name="Group 12886" transform="translate(0 0)">
        <g id="Group_12879" data-name="Group 12879" transform="translate(0 0)" clip-path="url(#clip-path)">
          <path id="Path_123244" data-name="Path 123244" d="M12.709,0c.464.061.93.108,1.39.186a11.7,11.7,0,0,1,5.2,2.283.473.473,0,1,1-.561.748A11.054,11.054,0,0,0,1.3,9.249a10.739,10.739,0,0,0,3.173,10.87c.049.048.1.09.14.12C5.856,16.38,8.4,14.232,12.54,14.39a7.391,7.391,0,0,1,6.808,5.879c.062-.048.117-.085.164-.129a10.841,10.841,0,0,0,3.521-7.264,10.9,10.9,0,0,0-1.492-6.493c-.024-.041-.047-.081-.068-.123a.465.465,0,0,1,.157-.635.445.445,0,0,1,.645.171c.327.629.662,1.258.932,1.912a10.844,10.844,0,0,1,.763,3.366,1.259,1.259,0,0,0,.04.181v1.5c-.019.154-.041.308-.057.462a11.837,11.837,0,0,1-2.9,6.676,11.768,11.768,0,0,1-6.977,3.936c-.436.077-.878.122-1.318.182h-1.5a1.34,1.34,0,0,0-.18-.039,11.584,11.584,0,0,1-5.632-1.918,11.828,11.828,0,0,1-5.261-7.98C.1,13.639.06,13.2,0,12.756v-1.5c.076-.532.134-1.067.232-1.6A11.994,11.994,0,0,1,9.913.184c.445-.074.895-.124,1.342-.184Zm-.746,23.076a11.024,11.024,0,0,0,6.082-1.792c.5-.323.5-.323.359-.906A6.534,6.534,0,0,0,9.742,15.7a6.378,6.378,0,0,0-4.2,4.993.353.353,0,0,0,.168.423,11.025,11.025,0,0,0,6.257,1.963" transform="translate(0 0)" fill="#fff" stroke="#fff" stroke-width="0.5"/>
          <path id="Path_123245" data-name="Path 123245" d="M128.734,79.5a4.221,4.221,0,1,1-4.23,4.21,4.227,4.227,0,0,1,4.23-4.21m-.013,7.5a3.283,3.283,0,1,0-3.279-3.28,3.29,3.29,0,0,0,3.279,3.28" transform="translate(-116.719 -74.532)" fill="#fff" stroke="#fff" stroke-width="0.5"/>
          <path id="Path_123246" data-name="Path 123246" d="M323.462,61.99a.467.467,0,1,1-.458-.464.473.473,0,0,1,.458.464" transform="translate(-302.36 -57.678)" fill="#fff" stroke="#fff" stroke-width="0.5"/>
        </g>
      </g>
    </g>
  </g>
</svg>
