<svg xmlns="http://www.w3.org/2000/svg" width="42" height="42" viewBox="0 0 42 42">
  <g id="Group_13972" data-name="Group 13972" transform="translate(-1621 -180)">
    <g id="Group_12281" data-name="Group 12281" transform="translate(1247.533 -316.467)">
      <g id="Ellipse_10" data-name="Ellipse 10" transform="translate(373.467 496.467)" fill="none" stroke="#fff" stroke-width="1">
        <circle cx="21" cy="21" r="21" stroke="none"/>
        <circle cx="21" cy="21" r="20.5" fill="none"/>
      </g>
      <g id="close" transform="translate(388.17 511.17)">
        <path id="Path_163202" data-name="Path 163202" d="M7.567,6.43l5.057-5.057A.8.8,0,0,0,11.486.237L6.43,5.293,1.373.237A.8.8,0,0,0,.236,1.374L5.293,6.43.236,11.487a.8.8,0,1,0,1.137,1.137L6.43,7.567l5.057,5.057a.8.8,0,0,0,1.137-1.137Z" transform="translate(0 -0.001)" fill="#fff" stroke="#fff" stroke-width="1"/>
      </g>
    </g>
  </g>
</svg>
